<svg xmlns="http://www.w3.org/2000/svg" x="0px" y="0px" width="100%" viewBox="0 0 200 135" style="vertical-align: middle; max-width: 100%; width: 100%;"><g>
	<path fill="rgb(154, 197, 213)" d="M131.243,18.104c-0.325,0.476,0.446,0.921,0.765,0.449c0.951-1.397,6.439-11.157,2.239-11.304    c-0.573-0.02-0.571,0.87,0,0.891c1.45,0.05-0.295,4.714-0.492,5.242C133.109,15.071,132.254,16.615,131.243,18.104z     M196.762,107.49c-2.134-0.906-5.186-0.852-7.42-1.072c-2.72-0.266-5.441-0.495-8.169-0.686c1.82-0.198,3.642-0.414,5.455-0.672    c3.78-0.537,16.406-2.006,12.698-9.189c-1.225-2.375-4.18-2.355-6.479-2.357c-4.477-0.006-8.949,0.743-13.287,1.807    c-9.969,2.438-19.433,6.552-29.479,8.724c-1.114,0.242-0.643,1.958,0.473,1.716c13.643-2.947,26.615-9.919,40.736-10.432    c0.777-0.035,1.559-0.043,2.338-0.021c2.445-0.213,3.23,1.717,2.359,5.787c-1.073,0.996-3.245,1.166-4.674,1.44    c-4.469,0.858-9.041,1.37-13.57,1.778c-7.521,0.674-15.066,0.812-22.609,0.524c-1.144-0.043-1.142,1.737,0,1.78    c0.555,0.021,1.109,0.029,1.664,0.047c0.133,0.077,0.282,0.117,0.436,0.115c7.824-0.061,15.643,0.146,23.447,0.688    c3.756,0.262,7.514,0.577,11.254,1.002c3.178-0.498,4.633,1.106,4.365,4.822l-1.354,0.4c-1.93,0.858-4.742,0.535-6.783,0.306    c-0.396-0.043-0.645,0.147-0.762,0.415c-0.077-0.092-0.187-0.146-0.303-0.157c-4.687-0.478-9.35-1.147-13.979-2.013    c-5.756-1.404-11.643-2.451-17.258-3.77c-1.113-0.262-1.588,1.455-0.473,1.715c7.284,1.711,14.631,3.264,21.866,5.174    c3.916,1.033,7.767,2.313,11.304,4.322c2.603,1.479,10.771,6.32,4.49,8.131c-6.746,1.944-15.609-3.16-21.837-5.459    c-7.427-2.742-14.854-5.48-22.276-8.223c-0.555-0.203-0.94,0.154-1.045,0.604c-0.045-0.059-0.09-0.111-0.135-0.17    c-0.388-0.491-0.936-0.334-1.238,0.059c-0.266,0.094-0.44,0.421-0.223,0.682c0.014,0.19,0.084,0.373,0.203,0.523    c5.863,7.464,12.975,14.146,22.104,17.288c4.219,1.452,14.574,3.729,17.063-1.38c0.326-0.393,0.498-0.87,0.446-1.451    c0.041-0.248,0.07-0.51,0.082-0.784c4.664,1.17,9.802,1.448,11.429-2.662c1.806-4.567-9.164-9.364-12.013-10.59    c-1.645-0.702-3.318-1.335-5.018-1.892c2.161,0.303,4.328,0.563,6.504,0.783c0.092,0.012,0.187-0.012,0.262-0.067    c0.096,0.346,0.358,0.651,0.803,0.702c3.061,0.343,9.342,0.604,11.293-2.568C200.932,110.807,198.964,108.423,196.762,107.49    L196.762,107.49z M184.438,129.145c-0.004,1.655-0.847,2.668-2.121,3.248c-2.252,0.485-5.256,0.518-6.941,0.469    c-1.654-0.219-3.292-0.557-4.896-1.012c-3.232-0.947-6.293-2.422-9.129-4.236c-1.154-0.746-2.271-1.551-3.345-2.411    c-0.894-0.812-1.767-1.646-2.638-2.476c-1.236-1.178-2.475-2.354-3.715-3.533c-0.936-1.032-1.844-2.09-2.723-3.168l30.063,11.094    c1.25,0.464,3.238,1.242,5.47,1.908C184.456,129.068,184.438,129.098,184.438,129.145L184.438,129.145z"></path>
	<path fill="rgb(154, 197, 213)" d="M145.223,115.641c-20.627,9.699-45.347,9.28-65.752-0.861c-10.843-5.389-19.467-13.572-27.38-22.61    c-8.984-10.261-17.686-20.776-26.51-31.173c-0.318-0.375-0.723-0.345-1.033-0.132c0.059-0.399-0.103-0.83-0.603-0.975l-1.46-0.426    c0.752-0.066,1.502-0.164,2.246-0.292c0.113-0.02,0.221-0.063,0.317-0.127c0.02,0.516,0.44,1.045,1.094,0.888    c12.762-3.08,26.116-2.8,38.664,1.167c2.491,0.788,4.915,1.736,7.289,2.791c0.474,0.459,0.979,0.675,1.507,0.686    c0.632,0.297,1.265,0.592,1.89,0.903c-3.473,1.421-7.145,2.424-11.025,2.897c-1.121,0.138-1.135,1.917,0,1.782    c4.614-0.564,8.957-1.831,13.035-3.646l0.08,0.044c0.579-0.31,1.165-0.605,1.758-0.887c-0.011-0.005-0.021-0.012-0.031-0.017    C87.683,61.52,94.905,55.101,101,47.797c10.163-12.172,18.452-26.074,25.479-40.284c1.112-1.225,2.306-2.375,3.568-3.443    c0.194-0.057,0.362-0.179,0.479-0.344c0.047-0.061,0.094-0.109,0.14-0.167c0.147-0.119,0.29-0.243,0.438-0.359    c0.068-0.054,0.117-0.13,0.136-0.216c1.797-1.381,4.188-0.037,5.3,1.723c1.199,1.897,1.271,3.069,1.029,5.256    c-0.25,2.222-0.993,4.412-1.789,6.494c-1.773,4.633-4.401,8.902-7.409,12.825c-5.433,7.083-12.123,13.065-18.786,18.952    c-0.859,0.759,0.4,2.014,1.257,1.258c10.142-8.961,20.81-18.503,26.14-31.28c0.479-1.135,0.925-2.286,1.33-3.451    c0.088-0.038,0.158-0.107,0.199-0.194c0.115-0.258,0.254-0.497,0.395-0.735c0.431-0.494,0.908-0.944,1.438-1.345    c0.057-0.04,0.1-0.091,0.131-0.15c0.305,0.018,0.598-0.119,0.778-0.363c4.281,2.097,5.242,4.624,2.879,7.578    c-1.139,2.051-2.377,4.044-3.713,5.973c-2.094,3.023-4.42,5.879-6.957,8.541c-4.815,5.064-10.332,9.319-16.358,12.834    c-0.988,0.577-0.096,2.116,0.896,1.538c10.498-6.123,19.451-14.609,25.883-24.956c1.967-3.162,5.623-8.581,2.723-12.276    c-1.836-2.336-5.129-2.447-6.887-0.13c-0.064,0.084-0.113,0.181-0.144,0.283c-0.146,0.168-0.293,0.337-0.429,0.512    c0.713-3.111,0.77-6.344-1.067-8.784c-1.993-2.649-5.616-3.241-8.036-1.341c-0.102,0.061-0.204,0.123-0.305,0.187l-0.289,0.159    c-0.053,0.041-0.098,0.092-0.148,0.134c-1.643,1.126-2.994,2.626-3.947,4.377c-0.265,0.303-0.547,0.605-0.846,0.833    c0.01,0.005,0.014,0.015,0.021,0.02c-3.225,6.45-6.705,12.805-10.508,18.962c0.613-1.9,0.912-3.797,0.688-5.571    c-0.802-6.362-7.248-0.816-8.956,1.981c0.897-3.213,1.771-6.884,1.257-9.982c-0.546-3.301-4.177-5.86-6.775-3.797    c0.322-6.029-0.82-10.543-5.502-8.746C94.47,0.4,94.27,0.614,94.191,0.882C93.692,0.62,92.87,0.86,92.78,1.615    c-1.246,10.558-2.535,21.147-5.05,31.492c-1.132,4.656-2.51,9.257-4.254,13.722c-1.063,2.736-2.274,5.411-3.63,8.013    c-0.452,0.865-5.315,10.03-6.993,7.142c-0.379-0.652-1.166-0.479-1.501-0.005c-14.334-5.8-29.681-7.625-45.683-3.766    c-0.112,0.028-0.219,0.078-0.312,0.147c-0.035-0.5-0.453-1.022-1.099-0.908c-1.474,0.259-2.969,0.377-4.465,0.352    c2.075-3.75,3.174-7.834,1.488-11.676c-2.417-5.504-6.94,1.679-8.726,5.247c-0.855-2.746-2.074-5.616-4.883-6.782    c-2.759-1.146-5.475-0.179-6.754,2.542c-3.738,7.95,4.784,15.203,10.392,19.332c0.048,0.687,0.906,1.26,1.485,0.609    c1.702-1.917,3.803-4.313,5.579-6.958l5.099,1.486c0.213,0.068,0.445,0.044,0.64-0.067c-0.04,0.258,0.037,0.521,0.21,0.717    c9.503,11.195,18.784,22.639,28.615,33.549c8.37,9.291,17.726,17.204,29.274,22.203c20.3,8.784,43.881,8.59,63.907-0.83    C147.154,116.689,146.254,115.154,145.223,115.641L145.223,115.641z M86.489,43.764c4.635-13.466,6.363-27.717,8.027-41.797    c0.177,0.117,0.411,0.153,0.684,0.048c4.221-1.62,3.275,7.602,3.154,9.106c-0.186,2.301-0.488,4.59-0.907,6.86    c-0.721,3.926-1.802,7.741-3.131,11.501c-0.383,1.082,1.334,1.547,1.713,0.473c0.606-1.717,3.204-10.811,4.01-18.552    c0.306,0.009,0.594-0.143,0.758-0.402c3.452,0.48,4.943,1.943,4.473,4.389c-0.156,1.35-0.365,2.693-0.629,4.026    c-0.338,1.738-0.752,3.459-1.238,5.162c-1.153,4.076-2.743,7.97-4.653,11.749c-0.517,1.021,1.017,1.922,1.535,0.899    c1.979-3.914,3.636-7.951,4.835-12.175c0.148-0.527,0.309-1.082,0.469-1.649c0.055,0.745,1.166,1.218,1.646,0.403    c0.748-1.273,3.867-5.641,5.629-3.316c0.842,1.111-0.771,5.085-1.165,6.171c-1.425,3.93-3.556,7.423-6.294,10.571    c-0.486,0.557-0.131,1.272,0.383,1.482c-1.327,1.833-2.691,3.639-4.092,5.418c-6.648,8.42-14.712,16.076-24.356,20.526    c-0.588-0.289-1.182-0.558-1.773-0.832C80.26,60.338,85.692,46.081,86.489,43.764z M12.278,64.982    c-3.373-2.458-6.952-5.08-8.896-8.886c-0.775-1.452-1.242-3.05-1.371-4.691c-0.507-3.609,1.682-4.965,6.567-4.068    c1.551,1.327,2.073,3.821,2.619,5.698c0.16,0.555,0.678,0.708,1.109,0.584c0.445,0.229,1.117,0.139,1.362-0.469    c0.595-1.469,2.146-5.513,3.734-6.219c3.936-1.75,2.494,5.495,1.933,7.205c-0.41,1.251-0.958,2.424-1.585,3.549    c-1.191-0.123-2.371-0.334-3.53-0.631c-1.11-0.284-1.571,1.397-0.473,1.717l2.83,0.824C15.296,61.492,13.801,63.257,12.278,64.982z"></path>
	<path fill="rgb(154, 197, 213)" d="M147.189,23.283c5.125-2.614,4.566,5.222,3.102,7.723c-0.907,1.546-2.389,2.947-3.646,4.244    c-0.939,0.963-1.91,1.897-2.91,2.797c-0.148-0.282-0.578-0.405-0.762-0.042l-0.509,1.021c-0.03,0.061-0.048,0.127-0.05,0.196    c-1.232,1.062-2.508,2.077-3.818,3.041c-5.248,3.843-11.017,6.784-17.146,8.931c-1.073,0.375-0.611,2.096,0.473,1.716    c7.969-2.791,15.571-6.994,21.986-12.553c0.123,0.419,0.496,0.727,1.017,0.516c1.418-0.575,3.751-2.092,5.265-2.138    c1.615-0.935,2.527-0.01,2.736,2.773c-0.328,0.676-0.658,1.35-0.99,2.025c-1.838,2.863-5.018,5.268-7.94,7.278    c-0.246,0.026-0.492,0.055-0.736,0.087c-0.554,0.073-0.834,0.546-0.841,0.987c-0.05,0.033-0.1,0.068-0.146,0.1    c-6.227,4.189-13.098,7.09-20.379,8.845c-1.111,0.268-0.642,1.985,0.473,1.717c7.835-1.888,15.881-5.227,22.615-10.084    c1.262-0.13,2.606-0.155,3.637,0.305c5.037,2.255,0.794,6.612-1.157,8.51c-2.103,2.045-4.537,3.692-7.124,5.056    c-0.025-0.004-0.055-0.001-0.082-0.004c-0.594,0.355-1.204,0.671-1.84,0.948c-0.007,0.003-0.016,0.002-0.021,0.004    c0,0.005-0.002,0.01,0,0.016c-6.306,2.894-13.229,4.236-20.002,5.501c-1.123,0.209-0.646,1.924,0.474,1.719    c6.845-1.279,14.081-2.707,20.495-5.688c0.283-0.16,0.596-0.259,0.918-0.185c0.439,0.101,0.688,0.502,0.67,0.941    c-0.018,0.328-0.172,0.641-0.371,0.909c-0.021,0.183-0.118,0.347-0.266,0.456c-0.054,0.035-0.104,0.07-0.153,0.107    c-0.011,0.012-0.021,0.02-0.025,0.026c-0.059,0.101-0.146,0.183-0.247,0.235c-0.229,0.188-0.484,0.342-0.758,0.455l-0.002,0.002    c-0.016,0.006-0.027,0.014-0.042,0.02L139.05,72.1l-1.172,0.588c-1.002,0.821-2.909,1.222-4.163,1.651    c-2.229,0.769-4.51,1.369-6.826,1.794c-4.861,0.889-9.707,0.993-14.611,0.489c-1.139-0.118-1.129,1.662,0,1.78    c4.394,0.449,9.025,0.424,13.561-0.225c-0.316,0.313-0.423,0.826-0.009,1.221c1.372,1.307-5.306,2.881-5.664,2.955    c-2.462,0.523-4.972,0.801-7.487,0.836c-2.818,0.043-5.587-0.25-8.311-0.803l-0.319-0.234c-0.377-0.053-0.757-0.096-1.13-0.176    c-0.04-0.013-0.066-0.031-0.104-0.043c-1.451-0.184-2.895-0.428-4.222-0.918c-0.646,0.266-0.783,1.412,0.085,1.695    c1.628,0.534,3.286,0.977,4.963,1.32c12.709,9.352,25.721,18.476,41.482,21.548c1.116,0.217,1.596-1.499,0.473-1.716    c-14.424-2.811-26.476-10.713-38.146-19.217c4.375,0.512,8.808,0.356,13.189-0.574c1.961-0.418,10.286-2.285,6.448-5.932    c-0.063-0.06-0.135-0.091-0.204-0.129c4.381-0.721,8.646-2.031,12.479-4.08c1.832-0.979,4.072-2.646,3.564-5.06    c-0.111-0.554-0.359-1.071-0.723-1.506c2.15-1.224,4.184-2.657,6.033-4.382c2.298-2.143,5.511-5.489,4.267-8.957    c-0.819-2.292-2.987-3.104-5.26-3.29c1.573-1.271,3.057-2.647,4.442-4.121c1.881-2.007,4.59-5.834,2.66-8.688    c-1.839-2.723-5.611-0.839-8.32,0.494c1.352-1.286,2.639-2.638,3.855-4.051c2.182-2.543,4.857-6.166,3.436-9.724    c-1.172-2.927-4.24-4.321-7.02-2.903C145.273,22.266,146.173,23.804,147.189,23.283L147.189,23.283z M59.099,95.077    c-0.371-0.437-0.996,0.192-0.628,0.63c3.552,4.191,7.687,7.852,12.278,10.863c0.48,0.316,0.924-0.451,0.449-0.768    C66.672,102.826,62.598,99.215,59.099,95.077z M71.829,103.251c-1.69-1.538-3.379-3.077-5.067-4.617    c-0.422-0.386-1.052,0.242-0.628,0.63l5.068,4.617C71.622,104.266,72.253,103.639,71.829,103.251z M76.835,112.006    c0.443,0.354,1.075-0.271,0.628-0.631l-5.099-4.07c-0.442-0.354-1.075,0.271-0.628,0.631L76.835,112.006z M80.411,109.45    c-1.333-1.218-2.665-2.435-3.998-3.652c-0.422-0.386-1.052,0.242-0.628,0.63c1.333,1.217,2.665,2.436,3.998,3.652    C80.204,110.466,80.834,109.838,80.411,109.45z M82.023,113.602c2.904,1.641,6.031,2.852,9.282,3.596    c0.558,0.131,0.795-0.729,0.236-0.857c-3.176-0.724-6.23-1.904-9.069-3.506C81.972,112.551,81.524,113.32,82.023,113.602z     M84.7,110.531l5.08,2.07c0.53,0.213,0.76-0.646,0.236-0.858l-5.08-2.069C84.407,109.456,84.177,110.316,84.7,110.531z     M84.921,107.163c-1.992-0.581-3.836-1.588-5.404-2.948c-0.431-0.373-1.062,0.256-0.628,0.631c1.683,1.463,3.659,2.547,5.796,3.178    C85.234,108.184,85.47,107.324,84.921,107.163L84.921,107.163z M95.372,116.189l5.608,2.021c0.539,0.191,0.771-0.667,0.235-0.857    l-5.608-2.021C95.07,115.139,94.838,115.998,95.372,116.189z M92.266,111.945l5.596,2.561c0.516,0.236,0.969-0.529,0.449-0.77    c-1.865-0.854-3.732-1.705-5.596-2.559C92.197,110.943,91.745,111.708,92.266,111.945z M106.688,118.973l11.226,0.525    c0.571,0.025,0.567-0.861,0-0.891l-11.226-0.527C106.115,118.055,106.117,118.943,106.688,118.973z M110.907,115.771    c-2.353-0.725-4.808-1.053-7.267-0.974c-0.568,0.019-0.572,0.91,0,0.892c2.4-0.074,4.733,0.235,7.029,0.939    C111.221,116.801,111.453,115.939,110.907,115.771L110.907,115.771z M102.623,119.385c-0.57,0-0.57,0.893,0,0.893h3.057    c0.569,0,0.572-0.893,0-0.893H102.623z M125.536,116.333c-2.882,0.092-5.759-0.245-8.541-0.998c-0.554-0.147-0.79,0.71-0.236,0.858    c2.859,0.772,5.817,1.121,8.777,1.029C126.105,117.205,126.109,116.314,125.536,116.333z M124.395,118.359    c-1.526,0.338-3.056,0.679-4.584,1.016c-0.559,0.125-0.322,0.984,0.237,0.857c1.527-0.336,3.056-0.676,4.583-1.014    C125.189,119.096,124.954,118.236,124.395,118.359z M134.553,115.219l-3.56,1.034c-0.548,0.158-0.315,1.019,0.235,0.856    c1.188-0.344,2.373-0.688,3.561-1.033C135.337,115.918,135.104,115.061,134.553,115.219z M187.008,125.952    c0.557,0.135,0.795-0.724,0.237-0.858c-10.272-2.443-20.271-5.924-29.843-10.391c-0.518-0.24-0.969,0.525-0.45,0.77    C166.592,119.975,176.661,123.484,187.008,125.952L187.008,125.952z M103.061,50.294c0.713,0.299,1.519-0.017,1.914-0.659    c0.205-0.333-0.086-0.639-0.39-0.651c-0.009-0.256-0.219-0.523-0.55-0.456c-0.635,0.13-1.11,0.599-1.285,1.218    C102.68,50,102.84,50.203,103.061,50.294z M111.789,54.105h-0.51c-0.571,0-0.573,0.89,0,0.89h0.51    C112.361,54.996,112.361,54.105,111.789,54.105z"></path>
	<path fill="rgb(154, 197, 213)" d="M117.207,60.259c0.098-0.312-0.139-0.516-0.393-0.538c-0.026-0.252-0.226-0.478-0.528-0.361    C115.007,59.853,116.809,61.506,117.207,60.259z M114.684,65.717c-0.718,0.639-0.371,1.895,0.523,2.152    c0.55,0.154,0.786-0.703,0.234-0.859c-0.217-0.063-0.366-0.431-0.186-0.61c0.241-0.243,0.594,0.122,0.575,0.376    c-0.04,0.572,0.851,0.569,0.89,0C116.79,65.769,115.469,65.015,114.684,65.717z M110.881,72.396c0.003,0.57,0.889,0.572,0.889,0    c-0.015-0.289,0.209-0.537,0.498-0.551c0.012,0,0.021,0,0.03,0c0.569-0.015,0.573-0.904,0-0.892    C111.51,70.963,110.876,71.607,110.881,72.396z M106.665,78.475c0.594-0.029,1.168-0.676,0.907-1.295    c-0.065-0.154-0.209-0.264-0.377-0.281c-0.064-0.166-0.221-0.276-0.396-0.291c-0.566-0.041-0.971,0.479-0.982,0.996    c-0.11,0.326-0.115,0.679-0.019,1.01C105.952,79.125,106.704,78.949,106.665,78.475L106.665,78.475z M118.945,38.747    c4.338-4.89,8.082-10.274,11.16-16.043c0.268-0.504-0.498-0.956-0.769-0.449c-3.037,5.703-6.735,11.027-11.021,15.863    C117.939,38.545,118.564,39.176,118.945,38.747z M138.133,25.846c2.174-2.733,4.064-5.678,5.646-8.791    c0.262-0.509-0.506-0.96-0.766-0.449c-1.543,3.048-3.39,5.932-5.51,8.61C137.152,25.661,137.779,26.295,138.133,25.846z     M123.895,41.686l12.11-12.35c0.401-0.409-0.226-1.039-0.628-0.629l-12.109,12.35C122.867,41.464,123.493,42.095,123.895,41.686z     M146.828,32.35l2.141-4.54c0.244-0.515-0.521-0.967-0.765-0.45l-2.144,4.54C145.816,32.416,146.582,32.868,146.828,32.35z     M127.298,48.321c5.267-2.75,10.261-5.996,14.914-9.692c0.447-0.355-0.187-0.982-0.629-0.63c-4.599,3.644-9.534,6.843-14.735,9.553    C126.34,47.818,126.79,48.586,127.298,48.321L127.298,48.321z M148.023,45.181c1.244-0.408,2.197-1.445,2.438-2.743    c0.103-0.56-0.753-0.8-0.856-0.236c-0.185,0.99-0.852,1.805-1.815,2.121C147.247,44.5,147.479,45.359,148.023,45.181z     M125.15,59.073c6.42-2.356,12.483-5.593,18.017-9.62c0.459-0.333,0.017-1.105-0.448-0.768c-5.467,3.986-11.459,7.193-17.805,9.53    C124.379,58.411,124.609,59.271,125.15,59.073z M144.63,61.103c1.556-1.059,2.649-2.592,3.113-4.421    c0.141-0.555-0.718-0.793-0.856-0.237c-0.406,1.6-1.339,2.959-2.705,3.888C143.713,60.654,144.154,61.426,144.63,61.103    L144.63,61.103z M122.076,70.736c6.506-1.641,12.863-3.819,19.007-6.514c0.522-0.229,0.071-0.996-0.449-0.769    c-6.075,2.66-12.36,4.809-18.794,6.425C121.287,70.02,121.521,70.879,122.076,70.736z M100.438,57.452    c-9.443,7.634-20.922,12.313-33.004,13.452c-0.564,0.054-0.57,0.943,0,0.891c12.314-1.154,24.014-5.925,33.632-13.713    C101.512,57.721,100.878,57.095,100.438,57.452z M51.04,66.111c0.173,0.318,0.489,0.581,0.869,0.563    c0.383-0.017,0.691-0.33,0.918-0.654c0.36-0.109,0.674-0.384,0.76-0.76c0.022-0.096,0.022-0.185,0.019-0.273    c0.321-0.217,0.25-0.829-0.229-0.812l-0.103,0.004c-0.075-0.165-0.184-0.311-0.322-0.428c-0.79-0.653-1.904-0.148-2.261,0.705    c-0.072,0.174,0.047,0.419,0.205,0.503l0.023,0.013c0.002,0.013-0.001,0.024,0.001,0.037c0.003,0.019,0.011,0.036,0.015,0.054    C50.846,65.418,50.864,65.793,51.04,66.111z"></path>
</g></svg>